{
	"asset":{
		"generator":"Khronos glTF Blender I/O v3.6.27",
		"version":"2.0"
	},
	"scene":0,
	"scenes":[
		{
			"name":"Scene",
			"nodes":[
				0,
				1,
				2
			]
		}
	],
	"nodes":[
		{
			"mesh":0,
			"name":"Cube",
			"rotation":[
				0,
				0,
				-0.14676915109157562,
				0.9891707897186279
			]
		},
		{
			"name":"Plane"
		},
		{
			"mesh":1,
			"name":"Plane.001"
		}
	],
	"materials":[
		{
			"doubleSided":true,
			"name":"Material.001",
			"pbrMetallicRoughness":{
				"baseColorFactor":[
					0.8000000715255737,
					0.2054859697818756,
					0.7653700709342957,
					1
				],
				"metallicFactor":5,
				"roughnessFactor":0.5
			}
		}
	],
	"meshes":[
		{
			"name":"Cube.001",
			"primitives":[
				{
					"attributes":{
						"POSITION":0,
						"NORMAL":1,
						"TEXCOORD_0":2
					},
					"indices":3
				}
			]
		},
		{
			"name":"Plane.003",
			"primitives":[
				{
					"attributes":{
						"POSITION":4,
						"NORMAL":5,
						"TEXCOORD_0":6
					},
					"indices":7,
					"material":0
				}
			]
		}
	],
	"accessors":[
		{
			"bufferView":0,
			"componentType":5126,
			"count":24,
			"max":[
				3.7016093730926514,
				2.71488881111145,
				0.6944575905799866
			],
			"min":[
				-3.537973403930664,
				-0.2258903980255127,
				-5.986598491668701
			],
			"type":"VEC3"
		},
		{
			"bufferView":1,
			"componentType":5126,
			"count":24,
			"type":"VEC3"
		},
		{
			"bufferView":2,
			"componentType":5126,
			"count":24,
			"type":"VEC2"
		},
		{
			"bufferView":3,
			"componentType":5123,
			"count":36,
			"type":"SCALAR"
		},
		{
			"bufferView":4,
			"componentType":5126,
			"count":474,
			"max":[
				1.0363014936447144,
				2.963902473449707,
				2.0938239097595215
			],
			"min":[
				-1.0363014936447144,
				0,
				-1.0363014936447144
			],
			"type":"VEC3"
		},
		{
			"bufferView":5,
			"componentType":5126,
			"count":474,
			"type":"VEC3"
		},
		{
			"bufferView":6,
			"componentType":5126,
			"count":474,
			"type":"VEC2"
		},
		{
			"bufferView":7,
			"componentType":5123,
			"count":1170,
			"type":"SCALAR"
		}
	],
	"bufferViews":[
		{
			"buffer":0,
			"byteLength":288,
			"byteOffset":0,
			"target":34962
		},
		{
			"buffer":0,
			"byteLength":288,
			"byteOffset":288,
			"target":34962
		},
		{
			"buffer":0,
			"byteLength":192,
			"byteOffset":576,
			"target":34962
		},
		{
			"buffer":0,
			"byteLength":72,
			"byteOffset":768,
			"target":34963
		},
		{
			"buffer":0,
			"byteLength":5688,
			"byteOffset":840,
			"target":34962
		},
		{
			"buffer":0,
			"byteLength":5688,
			"byteOffset":6528,
			"target":34962
		},
		{
			"buffer":0,
			"byteLength":3792,
			"byteOffset":12216,
			"target":34962
		},
		{
			"buffer":0,
			"byteLength":2340,
			"byteOffset":16008,
			"target":34963
		}
	],
	"buffers":[
		{
			"byteLength":18348,
			"uri":"data:application/octet-stream;base64,"
		}
	]
}
